<svg id="Capa_1" data-name="Capa 1" xmlns="http://www.w3.org/2000/svg" viewBox="0 0 800 1000"><defs><style>.cls-1{fill:#fc0;}.cls-2{fill:#eca336;}</style></defs><title>Mesa de trabajo 1</title><polygon class="cls-1" points="98.44 981.5 21.61 904.67 21.61 94.85 97.95 18.5 700.21 18.5 778.39 96.67 778.39 904.52 701.42 981.5 98.44 981.5"/><path d="M697.31,25.5l74.08,74.07V901.62L698.52,974.5H101.34L28.61,901.77v-804L100.85,25.5H697.31m5.8-14h-608L91,15.6,18.71,87.85,14.61,92V907.57l4.1,4.1L91.44,984.4l4.1,4.1H704.32l4.1-4.1,72.87-72.88,4.1-4.1V93.77l-4.1-4.1L707.21,15.6l-4.1-4.1Z"/><polygon class="cls-2" points="771.39 879.45 771.39 901.62 698.52 974.5 101.34 974.5 28.61 901.77 28.61 879.6 69.98 917.05 729.85 917.05 771.39 879.45"/></svg>